<?xml version="1.0" encoding="UTF-8"?>
<!DOCTYPE svg PUBLIC "-//W3C//DTD SVG 1.1//EN" "http://www.w3.org/Graphics/SVG/1.1/DTD/svg11.dtd">
<svg xmlns="http://www.w3.org/2000/svg" xml:space="preserve" width="675px" height="123px" version="1.1" shape-rendering="geometricPrecision" text-rendering="geometricPrecision" image-rendering="optimizeQuality" fill-rule="evenodd" clip-rule="evenodd" viewBox="0 0 1143.478 208.912"
    xmlns:xlink="https://www.mariomolinaaraoz.com.ar"
    xmlns:xodm="https://www.mariomolinaaraoz.com.ar">
    <defs>
        <style>
            .cls-1{fill:#343541;}.cls-1,
            .cls-2{fill-rule:evenodd;}.cls-2{fill:#4172c2;}
            @media (prefers-color-scheme:dark){
                .cls-1{fill:#f7f7f8;}.cls-1,
            .cls-2{fill-rule:evenodd;}.cls-2{fill:#4172c2;}
            }
        </style>
    </defs>
    <g id="Capa_x0020_1">        
        <g id="_3049304746896">
            <path class="cls-1" d="M936.297 106.746l0 65.121c0,13.054 5.68,12.081 17.256,12.01 10.131,-0.061 20.278,-0.013 30.412,-0.011l0.086 9.806 -17.231 0.035 -0.01 15.205 59.818 -0.138 0.151 -14.783 -17.004 -0.379 -0.183 -9.742c9.943,-0.012 19.778,-0.045 29.6,0.003 12.397,0.059 18.298,1.568 18.298,-12.006 0,-84.808 5.813,-76.159 -24.334,-76.144l-71.151 0c-13.824,0.009 -25.708,-4.083 -25.708,11.023z"/>
            <path class="cls-1" d="M1011.866 54.892c0.03,18.491 14.521,30.846 33.348,30.846l69.945 -0.002c30.003,0 38.877,-37.185 13.345,-50.248 -10.249,-5.244 -3.583,-12.387 -17.518,-19.856 -7.004,-3.753 -10.292,-1.619 -15.895,-3.414 -3.961,-1.269 -8.829,-11.549 -25.756,-11.674 -24.743,-0.182 -29.528,19.13 -32.556,22.998 -2.591,3.306 -24.953,6.792 -24.913,31.35z"/>
            <polygon fill="#4172c2" points="951.556,168.497 1041.76,168.649 1042.158,111.166 951.74,110.646 "/>
            <path fill="#4172c2" d="M1049.44 39.836c-7.854,-0.103 -12.74,-1.194 -17.767,3.905 -3.711,3.764 -6.436,11.66 -2.945,18.09 6.346,11.683 24.334,8.371 40.605,8.369 24.755,-0.004 62.228,6.854 58.561,-13.727 -1.347,-7.554 -6.757,-9.01 -15.816,-9.461 -2.05,-7.861 -2.794,-24.999 -24.444,-17.745 -4.832,-7.356 -10.038,-16.281 -24.036,-12.721 -10.805,2.748 -13.433,10.654 -14.158,23.29z"/>
            <path class="cls-1" d="M983.153 39.727c-24.937,9.583 -30.79,32.975 -23.11,45.92l15.776 0.035c-3.602,-11.994 -5.106,-21.912 6.687,-28.663 1.764,2.964 -0.104,0.049 0.648,2.917l1.764 4.764 16.485 -16.804c-4.444,-5.97 -12.51,-15.125 -17.903,-17.215l-0.347 9.046z"/>
            <path class="cls-1" d="M1087.885 124.449l-0.574 -8.907 -17.886 17.542 17.685 17.84c1.076,-20.259 3.341,-2.215 19.49,-22.58 6.988,-8.814 8.104,-20.051 5.204,-32.415l-16.67 0.255c6.257,13.985 2.581,21.071 -7.249,28.265z"/>
        </g>
        <path class="cls-1" fill-rule="nonzero" d="M58.987 123.198l0 -121.967 24.562 0 17.621 93.392 17.622 -93.392 24.584 0 0 121.967 -17.763 0 0 -96.25 -17.764 96.25 -13.334 0 -17.764 -96.25 0 96.25 -17.764 0zm121.03 -43.56l17.764 0 -8.882 -52.271 -8.882 52.271zm-26.645 43.56l26.645 -121.967 17.764 0 26.645 121.967 -17.764 0 -6.655 -30.503 -22.216 0 -6.656 30.503 -17.763 0zm98.813 -69.696l4.452 0c7.39,0 12.932,-1.533 16.651,-4.599 3.694,-3.067 5.542,-8.062 5.542,-15.008 0,-6.947 -1.848,-11.941 -5.542,-15.008 -3.719,-3.067 -9.261,-4.6 -16.651,-4.6l-4.452 0 0 39.215zm-17.764 69.696l0 -121.967 22.216 0c13.216,0 23.188,2.51 29.891,7.55 6.702,5.042 10.066,13.405 10.066,25.114 0,7.272 -1.327,13.335 -3.956,18.237 -2.629,4.902 -6.489,8.27 -11.581,10.082l19.989 60.984 -17.645 0 -17.882 -56.639 -13.334 0 0 56.639 -17.764 0zm77.71 0l0 -121.967 17.764 0 0 121.967 -17.764 0zm68.851 1.231c-6.252,0 -11.605,-0.93 -16.081,-2.788 -4.453,-1.858 -8.005,-4.6 -10.635,-8.177 -2.652,-3.578 -4.571,-7.783 -5.778,-12.615 -1.185,-4.832 -1.8,-10.454 -1.8,-16.867l0 -44.232c0,-6.389 0.615,-11.965 1.8,-16.751 1.207,-4.762 3.126,-8.897 5.778,-12.405 2.63,-3.532 6.182,-6.157 10.635,-7.946 4.476,-1.765 9.829,-2.648 16.081,-2.648 12.103,0 20.843,3.415 26.22,10.222 5.377,6.807 8.052,16.634 8.052,29.528l0 44.232c0,6.32 -0.615,11.895 -1.847,16.727 -1.231,4.832 -3.15,9.037 -5.778,12.662 -2.654,3.601 -6.207,6.342 -10.66,8.224 -4.475,1.881 -9.804,2.834 -15.987,2.834zm-12.955 -19.817c2.393,3.671 6.703,5.506 12.955,5.506 6.23,0 10.54,-1.835 12.932,-5.506 2.369,-3.67 3.577,-9.083 3.577,-16.262l0 -52.945c0,-7.086 -1.184,-12.382 -3.552,-15.867 -2.345,-3.485 -6.68,-5.251 -12.957,-5.251 -6.299,0 -10.634,1.766 -12.979,5.251 -2.368,3.485 -3.553,8.781 -3.553,15.867l0 52.945c0,7.179 1.209,12.592 3.577,16.262zm62.765 18.586l0 -121.967 24.561 0 17.622 93.392 17.621 -93.392 24.585 0 0 121.967 -17.764 0 0 -96.25 -17.763 96.25 -13.335 0 -17.763 -96.25 0 96.25 -17.764 0zm134.222 1.231c-6.253,0 -11.605,-0.93 -16.082,-2.788 -4.452,-1.858 -8.005,-4.6 -10.634,-8.177 -2.652,-3.578 -4.572,-7.783 -5.779,-12.615 -1.185,-4.832 -1.8,-10.454 -1.8,-16.867l0 -44.232c0,-6.389 0.615,-11.965 1.8,-16.751 1.207,-4.762 3.127,-8.897 5.779,-12.405 2.629,-3.532 6.182,-6.157 10.634,-7.946 4.477,-1.765 9.829,-2.648 16.082,-2.648 12.103,0 20.843,3.415 26.22,10.222 5.376,6.807 8.052,16.634 8.052,29.528l0 44.232c0,6.32 -0.616,11.895 -1.848,16.727 -1.231,4.832 -3.149,9.037 -5.778,12.662 -2.653,3.601 -6.206,6.342 -10.659,8.224 -4.476,1.881 -9.805,2.834 -15.987,2.834zm-12.955 -19.817c2.392,3.671 6.702,5.506 12.955,5.506 6.229,0 10.54,-1.835 12.932,-5.506 2.369,-3.67 3.577,-9.083 3.577,-16.262l0 -52.945c0,-7.086 -1.185,-12.382 -3.553,-15.867 -2.345,-3.485 -6.679,-5.251 -12.956,-5.251 -6.3,0 -10.635,1.766 -12.979,5.251 -2.368,3.485 -3.553,8.781 -3.553,15.867l0 52.945c0,7.179 1.208,12.592 3.577,16.262zm62.764 18.586l0 -121.967 17.764 0 0 108.887 31.098 0 0 13.08 -48.862 0zm57.934 0l0 -121.967 17.764 0 0 121.967 -17.764 0zm36.782 0l0 -121.967 13.335 0 31.074 75.411 0 -75.411 17.764 0 0 121.967 -12.624 0 -31.786 -81.125 0 81.125 -17.763 0zm98.814 -43.56l17.763 0 -8.882 -52.271 -8.881 52.271zm-26.646 43.56l26.646 -121.967 17.763 0 26.645 121.967 -17.764 0 -6.654 -30.503 -22.217 0 -6.655 30.503 -17.764 0z"/>
        <polygon class="cls-1" fill-rule="nonzero" points="42.374,96.069 0,66.419 0,49.47 42.374,19.797 42.374,36.746 12.701,57.876 42.374,79.119 "/>
        <polygon class="cls-1" fill-rule="nonzero" points="866.864,96.069 866.864,79.119 896.537,57.876 866.864,36.746 866.864,19.797 909.237,49.47 909.237,66.419 "/>
        <path class="cls-1" fill-rule="nonzero" d="M314.604 208.871c-4.916,0 -9.104,-1.082 -12.564,-3.232 -3.459,-2.151 -6.099,-5.144 -7.932,-8.991 -1.832,-3.846 -2.753,-8.308 -2.753,-13.383 0,-5.076 0.921,-9.536 2.753,-13.383 1.833,-3.846 4.473,-6.851 7.932,-9.002 3.46,-2.15 7.648,-3.22 12.564,-3.22 5.668,0 10.367,1.433 14.089,4.301 3.721,2.868 6.304,6.726 7.761,11.574l-7.238 1.946c-0.956,-3.437 -2.651,-6.134 -5.098,-8.091 -2.447,-1.958 -5.622,-2.937 -9.514,-2.937 -3.482,0 -6.384,0.786 -8.706,2.357 -2.321,1.57 -4.063,3.766 -5.235,6.588 -1.172,2.823 -1.763,6.112 -1.763,9.867 -0.023,3.756 0.557,7.045 1.729,9.867 1.173,2.822 2.925,5.019 5.258,6.589 2.333,1.571 5.235,2.355 8.717,2.355 3.892,0 7.067,-0.989 9.514,-2.958 2.447,-1.969 4.142,-4.655 5.098,-8.069l7.238 1.946c-1.457,4.848 -4.04,8.706 -7.761,11.574 -3.722,2.867 -8.421,4.302 -14.089,4.302zm30.044 -1.025l0 -49.162 7.135 0 0 42.437 22.26 0 0 6.725 -29.395 0zm54.352 1.025c-4.916,0 -9.105,-1.082 -12.564,-3.232 -3.46,-2.151 -6.1,-5.144 -7.932,-8.991 -1.832,-3.846 -2.754,-8.308 -2.754,-13.383 0,-5.076 0.922,-9.536 2.754,-13.383 1.832,-3.846 4.472,-6.851 7.932,-9.002 3.459,-2.15 7.648,-3.22 12.564,-3.22 4.893,0 9.081,1.07 12.552,3.22 3.471,2.151 6.111,5.156 7.932,9.002 1.821,3.847 2.731,8.307 2.731,13.383 0,5.075 -0.91,9.537 -2.731,13.383 -1.821,3.847 -4.461,6.84 -7.932,8.991 -3.471,2.15 -7.659,3.232 -12.552,3.232zm0 -6.795c3.482,0.046 6.384,-0.728 8.694,-2.31 2.31,-1.581 4.04,-3.79 5.201,-6.623 1.161,-2.833 1.741,-6.122 1.741,-9.878 0,-3.755 -0.58,-7.044 -1.741,-9.855 -1.161,-2.811 -2.891,-4.996 -5.201,-6.566 -2.31,-1.571 -5.212,-2.367 -8.694,-2.391 -3.483,-0.045 -6.373,0.717 -8.684,2.288 -2.31,1.571 -4.051,3.778 -5.212,6.623 -1.161,2.845 -1.753,6.146 -1.775,9.901 -0.023,3.756 0.546,7.033 1.707,9.844 1.161,2.811 2.913,5.007 5.246,6.578 2.333,1.57 5.235,2.367 8.718,2.389zm49.64 6.795c-3.847,0 -7.238,-0.797 -10.185,-2.379 -2.949,-1.582 -5.259,-3.801 -6.92,-6.657 -1.661,-2.857 -2.492,-6.214 -2.492,-10.083l0 -31.034 7.237 -0.034 0 30.692c0,2.094 0.353,3.938 1.059,5.531 0.706,1.593 1.65,2.925 2.834,3.994 1.184,1.07 2.515,1.878 3.983,2.425 1.468,0.546 2.958,0.819 4.484,0.819 1.547,0 3.061,-0.285 4.529,-0.843 1.468,-0.557 2.788,-1.365 3.971,-2.434 1.184,-1.07 2.129,-2.402 2.823,-3.995 0.694,-1.594 1.035,-3.426 1.035,-5.497l0 -30.692 7.238 0 0 31.068c0,3.847 -0.83,7.203 -2.492,10.071 -1.661,2.868 -3.96,5.087 -6.908,6.669 -2.947,1.582 -6.35,2.379 -10.196,2.379zm29.156 -1.025l0 -49.162 15.397 0c0.455,0 1.309,0.011 2.549,0.034 1.24,0.023 2.424,0.114 3.562,0.273 3.847,0.478 7.09,1.855 9.719,4.131 2.629,2.276 4.609,5.155 5.951,8.649 1.344,3.494 2.015,7.329 2.015,11.494 0,4.188 -0.671,8.023 -2.015,11.517 -1.342,3.494 -3.322,6.372 -5.951,8.638 -2.629,2.264 -5.872,3.641 -9.719,4.119 -1.138,0.159 -2.322,0.25 -3.562,0.273 -1.24,0.023 -2.094,0.034 -2.549,0.034l-15.397 0zm7.306 -6.794l8.091 0c0.774,0 1.696,-0.022 2.766,-0.068 1.069,-0.045 2.014,-0.136 2.833,-0.273 2.504,-0.478 4.541,-1.571 6.1,-3.266 1.559,-1.696 2.697,-3.779 3.425,-6.259 0.729,-2.481 1.092,-5.122 1.092,-7.921 0,-2.891 -0.375,-5.576 -1.126,-8.046 -0.751,-2.469 -1.9,-4.54 -3.46,-6.213 -1.559,-1.673 -3.573,-2.731 -6.031,-3.187 -0.819,-0.159 -1.764,-0.262 -2.845,-0.296 -1.081,-0.034 -2.003,-0.045 -2.754,-0.045l-8.091 0 0 35.574zm71.32 7.819c-3.528,0 -6.704,-0.615 -9.537,-1.833 -2.834,-1.217 -5.167,-2.959 -6.999,-5.223 -1.832,-2.265 -3.027,-4.951 -3.574,-8.069l7.444 -1.126c0.75,3.004 2.321,5.337 4.711,7.01 2.39,1.672 5.178,2.515 8.364,2.515 1.98,0 3.801,-0.319 5.463,-0.945 1.661,-0.626 3.004,-1.525 4.017,-2.697 1.013,-1.172 1.514,-2.572 1.514,-4.211 0,-0.887 -0.148,-1.672 -0.456,-2.355 -0.307,-0.683 -0.728,-1.286 -1.263,-1.798 -0.535,-0.512 -1.183,-0.956 -1.946,-1.332 -0.763,-0.376 -1.604,-0.694 -2.515,-0.967l-12.598 -3.721c-1.229,-0.365 -2.481,-0.843 -3.755,-1.423 -1.275,-0.58 -2.436,-1.343 -3.494,-2.288 -1.058,-0.944 -1.923,-2.116 -2.584,-3.516 -0.659,-1.4 -0.989,-3.095 -0.989,-5.098 0,-3.027 0.785,-5.599 2.344,-7.704 1.559,-2.106 3.665,-3.699 6.328,-4.78 2.663,-1.081 5.644,-1.616 8.944,-1.616 3.323,0.045 6.305,0.637 8.934,1.775 2.629,1.138 4.813,2.765 6.554,4.893 1.741,2.129 2.937,4.712 3.597,7.739l-7.648 1.297c-0.341,-1.843 -1.07,-3.437 -2.185,-4.768 -1.115,-1.332 -2.48,-2.355 -4.097,-3.073 -1.616,-0.717 -3.368,-1.08 -5.257,-1.104 -1.821,-0.045 -3.483,0.229 -4.996,0.82 -1.514,0.592 -2.72,1.423 -3.619,2.492 -0.899,1.07 -1.354,2.299 -1.354,3.688 0,1.365 0.398,2.469 1.194,3.311 0.797,0.842 1.787,1.502 2.959,1.992 1.173,0.489 2.333,0.898 3.494,1.217l9.082 2.561c1.137,0.318 2.435,0.74 3.88,1.274 1.446,0.535 2.845,1.286 4.199,2.242 1.355,0.956 2.47,2.219 3.357,3.801 0.888,1.582 1.332,3.574 1.332,5.963 0,2.481 -0.501,4.655 -1.502,6.533 -1.001,1.877 -2.367,3.448 -4.108,4.711 -1.742,1.264 -3.756,2.219 -6.032,2.857 -2.276,0.637 -4.677,0.956 -7.203,0.956zm26.117 -1.025l0 -49.162 31.409 0 0 6.726 -24.274 0 0 13.792 20.177 0 0 6.726 -20.177 0 0 15.193 24.274 0 0 6.725 -31.409 0zm39.603 0l0 -49.162 19.869 0c0.478,0 1.07,0.011 1.776,0.046 0.705,0.034 1.377,0.113 2.014,0.227 2.731,0.432 5.019,1.366 6.851,2.799 1.832,1.434 3.198,3.244 4.108,5.429 0.91,2.185 1.366,4.598 1.366,7.238 0,3.914 -1.002,7.283 -3.005,10.117 -2.002,2.833 -5.007,4.609 -9.012,5.314l-2.902 0.342 -13.93 0 0 17.65 -7.135 0zm28.746 0l-9.696 -20.006 7.204 -1.844 10.652 21.85 -8.16 0zm-21.611 -24.41l12.461 0c0.456,0 0.968,-0.023 1.525,-0.069 0.558,-0.045 1.081,-0.125 1.582,-0.239 1.457,-0.341 2.629,-0.978 3.517,-1.9 0.888,-0.921 1.524,-1.98 1.911,-3.187 0.387,-1.206 0.581,-2.412 0.581,-3.618 0,-1.207 -0.194,-2.413 -0.581,-3.608 -0.387,-1.195 -1.023,-2.253 -1.911,-3.175 -0.888,-0.922 -2.06,-1.548 -3.517,-1.889 -0.501,-0.137 -1.024,-0.228 -1.582,-0.273 -0.557,-0.046 -1.069,-0.068 -1.525,-0.068l-12.461 0 0 18.026zm48.821 24.41l-15.978 -49.162 7.409 0 13.621 41.959 13.793 -41.959 7.409 0 -15.978 49.162 -10.276 0zm32.058 0l0 -49.162 7.135 0 0 49.162 -7.135 0zm37.896 1.025c-4.916,0 -9.104,-1.082 -12.563,-3.232 -3.46,-2.151 -6.1,-5.144 -7.932,-8.991 -1.832,-3.846 -2.754,-8.308 -2.754,-13.383 0,-5.076 0.922,-9.536 2.754,-13.383 1.832,-3.846 4.472,-6.851 7.932,-9.002 3.459,-2.15 7.647,-3.22 12.563,-3.22 5.668,0 10.367,1.433 14.089,4.301 3.721,2.868 6.304,6.726 7.761,11.574l-7.237 1.946c-0.957,-3.437 -2.652,-6.134 -5.099,-8.091 -2.447,-1.958 -5.622,-2.937 -9.514,-2.937 -3.482,0 -6.384,0.786 -8.706,2.357 -2.321,1.57 -4.062,3.766 -5.235,6.588 -1.172,2.823 -1.763,6.112 -1.763,9.867 -0.023,3.756 0.557,7.045 1.729,9.867 1.173,2.822 2.925,5.019 5.258,6.589 2.333,1.571 5.235,2.355 8.717,2.355 3.892,0 7.067,-0.989 9.514,-2.958 2.447,-1.969 4.142,-4.655 5.099,-8.069l7.237 1.946c-1.457,4.848 -4.04,8.706 -7.761,11.574 -3.722,2.867 -8.421,4.302 -14.089,4.302zm29.361 -1.025l0 -49.162 31.41 0 0 6.726 -24.274 0 0 13.792 20.176 0 0 6.726 -20.176 0 0 15.193 24.274 0 0 6.725 -31.41 0zm56.503 1.025c-3.528,0 -6.703,-0.615 -9.537,-1.833 -2.834,-1.217 -5.166,-2.959 -6.998,-5.223 -1.833,-2.265 -3.028,-4.951 -3.574,-8.069l7.443 -1.126c0.751,3.004 2.322,5.337 4.711,7.01 2.39,1.672 5.178,2.515 8.364,2.515 1.981,0 3.802,-0.319 5.463,-0.945 1.662,-0.626 3.004,-1.525 4.017,-2.697 1.013,-1.172 1.514,-2.572 1.514,-4.211 0,-0.887 -0.148,-1.672 -0.456,-2.355 -0.306,-0.683 -0.728,-1.286 -1.263,-1.798 -0.535,-0.512 -1.183,-0.956 -1.945,-1.332 -0.763,-0.376 -1.605,-0.694 -2.515,-0.967l-12.599 -3.721c-1.228,-0.365 -2.481,-0.843 -3.755,-1.423 -1.275,-0.58 -2.435,-1.343 -3.494,-2.288 -1.058,-0.944 -1.923,-2.116 -2.583,-3.516 -0.66,-1.4 -0.99,-3.095 -0.99,-5.098 0,-3.027 0.785,-5.599 2.344,-7.704 1.559,-2.106 3.665,-3.699 6.328,-4.78 2.663,-1.081 5.644,-1.616 8.945,-1.616 3.322,0.045 6.304,0.637 8.933,1.775 2.629,1.138 4.813,2.765 6.555,4.893 1.741,2.129 2.936,4.712 3.596,7.739l-7.648 1.297c-0.341,-1.843 -1.069,-3.437 -2.185,-4.768 -1.115,-1.332 -2.48,-2.355 -4.096,-3.073 -1.617,-0.717 -3.369,-1.08 -5.258,-1.104 -1.821,-0.045 -3.482,0.229 -4.996,0.82 -1.514,0.592 -2.72,1.423 -3.619,2.492 -0.899,1.07 -1.354,2.299 -1.354,3.688 0,1.365 0.398,2.469 1.195,3.311 0.797,0.842 1.786,1.502 2.959,1.992 1.172,0.489 2.333,0.898 3.494,1.217l9.081 2.561c1.138,0.318 2.435,0.74 3.881,1.274 1.445,0.535 2.845,1.286 4.199,2.242 1.354,0.956 2.469,2.219 3.357,3.801 0.887,1.582 1.331,3.574 1.331,5.963 0,2.481 -0.501,4.655 -1.502,6.533 -1.001,1.877 -2.367,3.448 -4.108,4.711 -1.741,1.264 -3.755,2.219 -6.031,2.857 -2.276,0.637 -4.678,0.956 -7.204,0.956z"/>
    </g>
</svg>
