<svg xmlns="http://www.w3.org/2000/svg" viewBox="0 0 121.98 122.68">
    <defs>
        <style>
            .cls-1{fill:#f7f7f8;}.cls-1,
            .cls-2{fill-rule:evenodd;}.cls-2{fill:#4172c2;}            
        </style>
    </defs>
    <g id="Capa_2" data-name="Capa 2">
        <g id="Capa_1-2" data-name="Capa 1">
            <g id="_3049304746896" data-name=" 3049304746896">                
                <path class="cls-1" d="M0,62.53v38.34c0,7.69,3.34,7.11,10.16,7.07,6,0,11.94,0,17.91,0l.05,5.78-10.15,0v9l35.21-.08.09-8.7-10-.23-.11-5.73c5.86,0,11.65,0,17.43,0,7.3,0,10.77.92,10.77-7.07C71.35,50.94,74.78,56,57,56H15.14C7,56,0,53.63,0,62.53Z"/>
                <path class="cls-1" d="M44.49,32c0,10.89,8.55,18.16,19.64,18.16h41.18c17.66,0,22.89-21.89,7.85-29.59-6-3.08-2.1-7.29-10.31-11.69-4.12-2.21-6.06-1-9.36-2C91.16,6.13,88.29.07,78.33,0,63.76-.11,60.94,11.26,59.16,13.54c-1.53,2-14.69,4-14.67,18.46Z"/>
                <polygon class="cls-2" points="8.98 98.89 62.09 98.97 62.33 65.13 9.09 64.83 8.98 98.89"/>
                <path class="cls-2" d="M66.61,23.13c-4.62-.06-7.5-.7-10.46,2.3C54,27.65,52.36,32.3,54.42,36.08,58.16,43,68.75,41,78.33,41c14.57,0,36.63,4,34.48-8.08-.8-4.45-4-5.3-9.32-5.57-1.2-4.63-1.64-14.72-14.39-10.45C86.26,12.58,83.19,7.33,75,9.42,68.59,11,67,15.69,66.61,23.13Z"/>
                <path class="cls-1" d="M27.59,23.07C12.91,28.71,9.46,42.48,14,50.11l9.29,0c-2.12-7.06-3-12.9,3.94-16.88,1,1.75-.06,0,.38,1.72l1,2.8,9.7-9.89C35.72,24.37,31,19,27.79,17.74Z"/>
                <path class="cls-1" d="M89.25,73l-.34-5.24L78.38,78l10.41,10.5c.64-11.93,2-1.3,11.48-13.3,4.11-5.18,4.77-11.8,3.06-19.08l-9.81.15C97.2,64.54,95,68.72,89.25,73Z"/>
            </g>
        </g>
    </g>
</svg>